<svg width="192" height="206" viewBox="0 0 192 206" fill="none" xmlns="http://www.w3.org/2000/svg">
<path d="M37.5 112.5C33.7059 116.702 30.2966 117.783 23 118.5C11.2387 114.496 7.3322 111.05 3.50004 103.5C0.171326 95.4507 0.377825 92.0592 3.50004 87.5L14.5 75.5L51.5 52.5V41.5C60.93 33.1166 66.906 29.8537 79 27C77.5458 22.8236 78.1176 21.287 82.5 20.5C85.6262 20.727 87.1325 22.2943 89.5 27C97.6578 24.9543 102.288 24.2975 111 27C116.754 17.3208 119.681 13.8396 124 13.5V3.5C125.7 0.724119 127.236 0.644084 129.945 0.502886L130 0.5C133.988 0.811766 135.951 1.3597 137.5 5C147.04 4.06882 151.528 4.83588 157 10C159.872 6.98211 161.929 6.08858 167 7.00002C171.198 12.5401 171.158 15.4936 167 20.5C169.986 32.9339 167.834 38.1837 165 48L163.5 56.5L187 68.5L191 80.5C190.63 89.5555 189.631 93.0295 187 97.5L175 101.5C164.052 97.4634 157.894 88.5808 150.5 73C157.197 88.0822 161.773 95.646 165 114.5L175 137.5C175.807 142.704 176.046 145.897 175 153.5C187.971 159.54 191.259 166.405 187 187.5C183.902 195.552 172 201 172 201C172 201 161.955 204.795 154.5 201L150.5 198.5C119.219 202.481 101.425 203.307 69 201L63.5 198.5C39.1828 210.57 26.979 206.149 17.5 176C8.02105 145.851 26 156 26 156L29 137.5L37.5 124.5V112.5Z" fill="#FFFAB0"/>
<path d="M46 87.5L40 97.5L37.5 112.5M37.5 112.5C33.7059 116.702 30.2966 117.783 23 118.5C11.2387 114.496 7.3322 111.05 3.50004 103.5C0.171326 95.4507 0.377825 92.0592 3.50004 87.5L14.5 75.5C14.5 75.5 37.0506 61.4821 51.5 52.5M37.5 112.5V124.5C34.1806 129.577 32.3195 132.423 29 137.5L26 156C26 156 8.02105 145.851 17.5 176C26.979 206.149 39.1828 210.57 63.5 198.5L69 201C101.425 203.307 119.219 202.481 150.5 198.5L154.5 201C161.955 204.795 172 201 172 201C172 201 183.902 195.552 187 187.5C191.259 166.405 187.971 159.54 175 153.5C176.046 145.897 175.807 142.704 175 137.5L165 114.5C161.773 95.646 157.197 88.0822 150.5 73C157.894 88.5808 164.052 97.4634 175 101.5L187 97.5C189.631 93.0295 190.63 89.5555 191 80.5L187 68.5L163.5 56.5M51.5 52.5C80.0869 55.3724 92.8544 54.1621 111 48C115.557 53.8116 118.239 55.6448 124 48L148 52.5C151.632 59.8943 154.673 61.6191 163.5 56.5M51.5 52.5V41.5C60.93 33.1166 66.906 29.8537 79 27C77.5458 22.8236 78.1176 21.287 82.5 20.5C85.6262 20.727 87.1325 22.2943 89.5 27C97.6578 24.9543 102.288 24.2975 111 27C116.754 17.3208 119.681 13.8396 124 13.5V3.5C125.712 0.705265 127.257 0.643121 130 0.5C133.988 0.811766 135.951 1.3597 137.5 5C147.04 4.06882 151.528 4.83588 157 10C159.872 6.98211 161.929 6.08858 167 7.00002C171.198 12.5401 171.158 15.4936 167 20.5C169.986 32.9339 167.834 38.1837 165 48L163.5 56.5" stroke="black"/>
<path d="M134.5 34.5C134.217 36.5507 134.287 37.6745 136 39.5C138.437 39.5785 139.598 39.1727 141 37C141.291 39.2928 141.225 41.1093 144 41C146.775 40.8907 147.796 35.9013 146.5 37.5" stroke="black"/>
<circle cx="126" cy="31" r="3" fill="#76332E"/>
<circle cx="154" cy="36" r="3" fill="#76332E"/>
<path d="M119.5 121C120.63 119.077 120.398 118.126 119.5 116.5C118.602 114.874 100.5 107 78.5 116.5V127M119.5 121C119.5 124.5 119.5 149 119.5 149C117.992 152.664 116.828 154.158 114 155.5H85C81.6163 155.052 80.8422 153.774 80 151M119.5 121C123.873 120.531 126.046 120.893 129.5 122.5" stroke="black"/>
<path d="M90 99C90.0813 102.589 90.9707 103.779 94.5 104C98.224 103.246 99.4282 102.223 101 100L102 90C102 90 103.746 98.5935 104.5 100C105.254 101.407 111.311 103.996 113 104C118.062 104.003 117 95.5 115.5 97.5" stroke="black"/>
<path d="M62 91C61.9365 95.14 63.2268 96.3556 68 96.5C73.4455 96.4086 74.6816 94.0623 75 87.5M124 81.5C124 81.5 124 87.5 129 87.5C134 87.5 135.5 81.5 135.5 81.5" stroke="black"/>
<path d="M54.5 125.5C55.776 127.333 56.7996 128.283 60.5 129.5C60.5 129.5 67.582 130.015 72 129.5C76.418 128.985 84.2945 132.996 83.5 134C84.9612 137.515 85.2197 139.485 83.5 143C82.2904 146.769 81.1149 148.413 78 150.5C72.491 152.655 69.2011 153.355 62.5 152.5L54.5 150.5M153.5 147C149.641 149.51 146.882 150.254 141 150.5C134.936 150.063 131.811 149.124 127 145.5C122.185 142.511 121.785 140.55 121.5 137C121.894 131.201 122.896 128.926 126 126.5C129.556 124.121 131.422 123.334 134.5 123H147.5" stroke="black"/>
</svg>
