<?xml version="1.0" encoding="UTF-8"?>
<svg xmlns="http://www.w3.org/2000/svg" version="1.0" viewBox="0 0 1280.121225 1107.649688" preserveAspectRatio="xMidYMid meet">
  <metadata>
For more coloring pages, please visit ColoringAll.com
</metadata>
  <g transform="translate(-0.617727,1108.352060) scale(0.100000,-0.100000)" fill="#000000" stroke="none">
    <path d="M6045 11076 c-134 -25 -204 -81 -255 -203 -34 -82 -70 -211 -70 -253 0 -67 -36 -128 -155 -260 -105 -117 -172 -220 -253 -390 l-69 -145 6 -291 6 -290 38 -77 c44 -89 134 -189 305 -339 61 -55 112 -103 112 -108 0 -6 -35 -56 -78 -112 -86 -114 -77 -109 -249 -138 -128 -21 -158 -56 -223 -260 -35 -110 -49 -139 -119 -242 -58 -85 -86 -139 -106 -200 -15 -46 -59 -168 -97 -272 -73 -201 -112 -341 -123 -452 l-7 -69 -287 -290 c-158 -159 -302 -312 -320 -338 -44 -64 -124 -234 -155 -327 -35 -107 -46 -205 -46 -418 l-1 -187 -105 -70 c-172 -114 -245 -198 -304 -348 -13 -32 -36 -69 -54 -84 -17 -14 -103 -61 -191 -104 -88 -43 -221 -115 -295 -159 -253 -153 -532 -279 -1020 -462 -815 -305 -1301 -523 -1451 -651 -164 -141 -274 -277 -349 -432 -102 -210 -123 -308 -124 -575 0 -187 2 -212 23 -280 48 -155 190 -389 302 -496 155 -147 371 -228 666 -250 50 -4 97 -10 104 -15 10 -6 9 -29 -5 -112 -13 -73 -17 -138 -14 -218 3 -104 7 -120 37 -182 84 -174 268 -278 560 -316 107 -14 391 -14 500 -1 121 16 164 35 306 135 10 6 26 3 52 -13 101 -60 226 -117 356 -161 223 -76 489 -148 647 -176 80 -13 237 -45 350 -69 777 -170 1248 -224 2015 -233 948 -11 1838 43 2188 134 l97 25 66 -61 c195 -183 315 -234 549 -234 197 0 334 47 506 174 107 79 312 284 419 419 94 120 90 117 265 119 208 2 355 35 520 115 128 63 215 126 304 221 119 128 187 254 245 454 61 213 71 224 291 359 129 79 200 105 360 131 247 41 424 94 580 174 86 44 114 66 206 157 121 121 212 251 257 367 57 146 65 335 22 475 -51 167 -247 391 -420 482 l-68 36 -219 0 -220 0 -23 87 c-45 172 -179 456 -309 655 -163 250 -430 514 -841 830 -196 152 -178 129 -200 243 -52 259 -108 361 -312 565 -222 221 -457 362 -693 416 -81 19 -262 25 -318 11 -18 -5 -27 -3 -27 4 0 7 23 61 50 120 236 508 192 874 -162 1341 l-59 78 7 173 7 173 -61 65 c-79 85 -138 117 -244 131 -69 9 -96 8 -162 -5 -108 -22 -161 -56 -213 -137 -72 -112 -73 -113 -158 -108 -86 4 -108 19 -157 106 -34 59 -47 65 -134 60 l-58 -3 -23 56 c-12 31 -25 74 -29 97 l-6 40 114 85 c253 187 360 322 424 532 26 84 27 103 28 275 1 196 -7 260 -55 476 -33 150 -36 214 -13 352 20 121 15 230 -14 295 -27 62 -114 153 -177 185 -43 22 -66 27 -161 30 -108 4 -114 3 -176 -26 -40 -20 -97 -62 -153 -113 -128 -117 -122 -115 -318 -82 -149 25 -182 27 -408 25 l-247 -2 -11 46 c-27 107 -107 224 -184 268 -74 43 -225 61 -332 42z m188 -170 c101 -24 149 -90 173 -235 16 -97 37 -134 80 -140 16 -1 94 5 173 14 207 26 343 18 603 -35 115 -23 218 -40 230 -38 12 2 41 27 65 58 84 107 163 188 199 205 77 36 235 -6 286 -77 30 -43 35 -126 13 -239 -25 -128 -17 -233 36 -459 42 -177 43 -192 42 -335 -1 -218 -41 -352 -147 -492 -56 -74 -133 -137 -292 -238 -167 -107 -178 -116 -170 -163 21 -136 20 -147 -11 -193 -16 -24 -48 -76 -71 -115 -41 -70 -91 -124 -116 -124 -7 0 -40 47 -74 104 -75 126 -129 177 -250 239 -115 60 -132 77 -132 135 0 121 39 115 322 -50 76 -44 144 -78 152 -75 19 7 42 44 50 80 6 24 1 34 -31 66 -70 69 -333 218 -426 242 -34 8 -54 8 -80 0 -41 -14 -138 -108 -161 -155 -23 -49 -20 -126 9 -212 14 -41 25 -76 25 -78 0 -1 -25 -20 -56 -41 -79 -55 -161 -149 -200 -230 l-34 -69 0 -152 c0 -150 0 -151 -32 -215 -40 -79 -134 -179 -168 -179 -39 0 -248 58 -305 84 -32 14 -66 41 -89 69 -60 74 -86 72 -177 -11 -95 -86 -150 -101 -224 -59 -82 46 -137 223 -116 371 14 100 33 130 87 134 68 4 137 -57 162 -143 26 -90 75 -135 126 -115 52 19 57 64 25 217 -27 124 -30 115 103 315 54 80 105 163 115 183 21 44 37 27 -181 177 -167 115 -252 192 -286 258 -111 217 -99 516 30 788 78 164 177 282 332 396 61 45 67 52 60 75 -14 51 -7 234 11 293 21 68 69 134 117 159 42 23 120 24 203 5z m763 -2495 c60 -27 99 -82 134 -187 41 -123 52 -131 138 -116 95 17 225 58 255 82 15 12 36 47 48 81 12 33 25 58 29 57 3 -2 31 -32 61 -68 65 -77 88 -83 154 -44 l47 27 56 -27 c32 -14 91 -33 132 -42 101 -21 285 -30 303 -16 7 6 24 43 37 82 27 80 77 145 127 166 18 8 60 14 95 14 169 0 236 -125 168 -312 l-24 -67 21 -43 c12 -24 53 -81 92 -127 150 -179 235 -328 251 -442 13 -87 12 -386 -1 -489 -16 -134 -109 -312 -212 -407 -157 -145 -462 -191 -1177 -180 -593 10 -875 51 -1083 159 -197 103 -276 254 -293 561 -18 324 61 544 287 810 l33 37 -27 64 c-50 122 -45 225 15 319 31 49 99 103 146 117 50 15 145 10 188 -9z m-1646 -765 c127 -62 160 -66 297 -31 129 33 126 33 359 -31 172 -47 199 -60 198 -99 -1 -16 -8 -110 -15 -207 -18 -244 -6 -376 50 -547 26 -79 38 -128 32 -134 -16 -16 -688 46 -860 78 -43 9 -91 25 -113 40 -68 45 -82 47 -110 17 -14 -15 -51 -63 -83 -107 -112 -155 -291 -311 -346 -303 -12 2 -36 20 -53 42 -31 38 -31 38 -30 160 0 68 6 137 13 158 17 50 88 112 148 128 76 21 163 73 163 97 0 5 -25 33 -56 63 l-56 55 6 65 c13 143 68 287 157 405 68 92 169 195 191 195 9 0 58 -20 108 -44z m470 -1181 c250 -19 487 -40 525 -46 86 -14 222 -59 332 -109 93 -44 89 -37 128 -190 34 -136 53 -175 125 -261 35 -41 69 -88 76 -106 17 -39 18 -183 4 -303 -44 -357 -254 -649 -551 -766 -324 -127 -998 -100 -1484 61 -159 52 -405 174 -527 262 -167 120 -299 271 -349 402 -33 86 -37 245 -10 388 28 147 74 301 117 390 52 110 207 293 247 293 7 0 34 -44 59 -98 57 -119 105 -183 162 -217 103 -60 186 -22 431 200 160 144 164 147 215 140 25 -3 250 -21 500 -40z m3613 -176 c223 -33 653 -354 762 -568 36 -73 53 -151 69 -329 10 -112 21 -176 33 -200 18 -37 18 -37 95 -42 66 -5 83 -11 130 -41 184 -123 625 -541 767 -727 165 -218 306 -502 355 -718 l13 -60 -124 -160 c-146 -185 -179 -245 -162 -293 13 -37 35 -51 79 -51 28 0 51 20 184 154 134 137 160 158 233 195 l83 41 133 0 c123 0 137 -2 184 -26 107 -53 272 -234 314 -344 18 -47 20 -70 16 -165 -3 -91 -9 -122 -32 -178 -56 -138 -165 -278 -283 -365 -155 -114 -304 -163 -661 -216 -118 -18 -205 -52 -361 -141 -58 -33 -105 -54 -110 -49 -4 5 -23 77 -40 159 -71 336 -143 482 -319 654 -224 217 -489 384 -1481 931 -255 141 -547 306 -559 316 -2 1 18 37 44 78 95 153 110 232 72 381 -14 55 -28 111 -31 125 -3 14 -10 151 -16 305 -12 315 -23 449 -51 614 -11 63 -17 116 -14 119 9 10 155 -17 228 -42 40 -13 154 -58 254 -100 100 -42 193 -76 207 -76 58 0 98 101 59 149 -10 11 -73 45 -141 75 -156 69 -278 150 -338 223 -87 108 -108 176 -75 241 56 109 260 165 484 131z m-2237 -79 c85 -16 86 -17 85 -95 -2 -118 -48 -172 -139 -162 -78 9 -129 65 -176 195 -14 40 -26 76 -26 79 0 8 182 -4 256 -17z m1542 -124 c3 -150 -2 -166 -48 -166 -63 0 -89 55 -90 194 0 59 4 74 22 93 18 20 31 23 68 21 l45 -3 3 -139z m-957 79 c78 -3 106 -8 121 -22 11 -10 47 -69 81 -133 120 -224 201 -274 381 -231 112 27 132 26 150 -1 24 -38 83 -236 107 -358 26 -128 31 -353 16 -590 -9 -123 -8 -127 23 -230 40 -135 49 -242 25 -294 -23 -49 -46 -59 -131 -59 -94 1 -127 18 -238 123 -150 141 -158 146 -235 164 -39 9 -198 32 -354 52 -155 19 -326 44 -380 55 -84 18 -101 19 -115 7 -10 -8 -62 -52 -117 -99 -219 -187 -317 -251 -405 -264 -84 -12 -199 42 -236 110 -18 34 -18 35 2 62 11 16 90 75 176 133 181 121 266 194 333 282 121 159 180 364 216 741 13 145 18 155 91 181 95 35 162 147 174 289 3 39 7 77 9 84 3 9 31 11 105 8 55 -3 146 -7 201 -10z m633 -42 c-10 -91 -26 -141 -49 -163 -21 -20 -32 -22 -85 -17 -104 9 -140 52 -140 167 l0 60 140 0 140 0 -6 -47z m-4300 -999 c109 -113 181 -180 205 -190 20 -8 56 -35 81 -58 60 -59 135 -105 301 -186 247 -120 429 -169 736 -194 94 -8 181 -19 192 -25 11 -6 64 -11 118 -11 61 0 103 -4 110 -11 9 -9 42 -9 130 -1 65 6 159 14 209 18 l90 6 27 -64 c38 -88 77 -132 150 -167 71 -35 157 -51 273 -51 185 0 266 36 424 187 l106 102 140 -10 c173 -11 326 -27 348 -35 53 -21 -17 -80 -159 -135 -78 -30 -115 -40 -455 -113 -311 -66 -448 -67 -925 -5 -345 44 -553 67 -720 79 -82 6 -224 24 -315 40 -91 15 -253 42 -360 60 -383 61 -657 132 -890 229 -132 55 -150 65 -198 116 -90 97 -116 176 -93 287 17 80 41 110 164 206 60 46 111 90 114 97 2 8 10 12 17 9 6 -2 88 -83 180 -180z m-453 -525 c153 -113 186 -132 285 -168 159 -58 584 -157 899 -210 188 -31 826 -113 1220 -155 572 -62 751 -60 1230 15 245 38 298 54 462 136 109 54 159 74 175 70 31 -8 208 -107 538 -302 417 -246 704 -410 1155 -660 801 -444 983 -564 1100 -729 96 -136 166 -329 194 -539 15 -107 14 -167 -5 -278 -42 -244 -147 -490 -262 -613 -83 -87 -250 -174 -410 -213 -106 -25 -437 -23 -563 4 -233 50 -445 171 -584 333 -70 83 -161 223 -215 335 -83 170 -114 287 -170 650 -42 267 -57 329 -87 365 -33 39 -64 38 -110 -3 -32 -30 -37 -41 -41 -90 -8 -97 37 -403 88 -607 16 -63 52 -182 80 -263 27 -82 50 -155 50 -164 0 -19 -49 -77 -206 -243 -209 -223 -302 -337 -319 -394 -14 -46 -26 -134 -41 -318 l-5 -66 -112 -21 c-252 -46 -414 -59 -1037 -86 -69 -3 -305 -15 -525 -26 -681 -35 -909 -28 -1525 52 -715 92 -1650 287 -1965 410 -224 87 -574 331 -711 497 -98 118 -195 299 -214 402 -39 203 37 644 148 865 19 39 62 112 94 164 76 118 118 207 118 248 0 38 -50 93 -83 93 -63 0 -165 -140 -303 -415 -112 -222 -124 -252 -174 -444 -22 -85 -52 -174 -65 -197 -36 -61 -122 -134 -229 -193 -170 -94 -253 -112 -516 -113 -193 0 -279 15 -387 67 -121 60 -260 210 -341 370 -167 333 -81 805 201 1102 172 180 466 331 1152 588 759 284 1020 400 1485 655 244 134 340 179 381 180 18 0 67 -30 150 -91z m-1856 -2886 c23 -111 61 -199 151 -342 50 -81 103 -151 267 -352 37 -46 67 -89 67 -96 0 -33 -233 -67 -450 -66 -123 0 -160 4 -243 26 -178 47 -248 91 -293 182 -32 66 -35 164 -9 264 28 109 62 158 153 221 57 38 326 190 339 190 7 0 15 -12 18 -27z m7113 -535 c236 -225 312 -276 557 -378 55 -22 103 -45 108 -49 10 -10 -102 -139 -209 -240 -112 -104 -239 -200 -327 -247 l-68 -36 -187 4 c-186 3 -187 3 -240 33 -201 111 -277 411 -153 602 61 93 365 423 390 423 7 0 64 -50 129 -112z M5964 9999 c-47 -14 -76 -51 -82 -107 -13 -140 144 -208 245 -107 29 29 33 40 33 83 0 100 -92 161 -196 131z M7540 9912 c-44 -22 -62 -56 -57 -109 6 -57 45 -107 102 -128 42 -17 48 -17 90 -1 24 10 58 33 76 53 25 29 30 42 26 69 -7 42 -51 108 -83 123 -37 16 -114 13 -154 -7z M6715 9689 c-45 -46 -121 -99 -143 -99 -7 0 -37 23 -65 50 -58 57 -85 62 -122 25 -20 -19 -25 -34 -25 -77 0 -64 23 -105 80 -147 63 -45 118 -50 210 -18 42 15 86 27 98 27 12 0 64 -16 115 -36 151 -60 221 -56 300 15 86 78 89 187 6 232 -28 14 -76 -16 -100 -64 -11 -21 -31 -43 -44 -49 -43 -19 -76 -1 -165 92 -47 50 -90 90 -96 90 -5 0 -28 -18 -49 -41z M6259 9030 c-101 -30 -259 -161 -259 -214 0 -25 48 -76 72 -76 8 0 64 23 124 52 89 42 119 52 164 52 53 1 55 0 58 -27 4 -34 -33 -93 -137 -217 -75 -90 -86 -120 -48 -144 68 -42 148 -15 254 86 81 79 112 138 120 229 10 115 -41 200 -151 250 -43 20 -147 25 -197 9z M8455 7409 c-33 -62 -17 -114 55 -186 31 -31 54 -44 92 -53 100 -21 185 7 256 84 46 50 53 85 27 135 -22 44 -42 45 -94 6 -25 -19 -65 -46 -88 -60 -51 -32 -61 -28 -145 51 -31 30 -63 54 -72 54 -9 0 -23 -14 -31 -31z M7258 7350 c-14 -11 -40 -44 -56 -74 -23 -40 -42 -59 -75 -75 -56 -27 -61 -27 -89 9 -67 87 -70 90 -99 90 -103 0 -88 -170 20 -229 60 -33 164 -34 238 -1 64 27 137 103 154 158 11 37 9 45 -12 89 -27 55 -45 62 -81 33z M7880 7181 c-16 -16 -32 -41 -35 -57 -24 -107 -49 -139 -116 -150 -33 -6 -40 -2 -103 60 -38 36 -74 66 -81 66 -23 0 -55 -51 -55 -87 0 -74 69 -158 149 -181 74 -23 131 -15 216 28 90 46 109 48 190 19 115 -41 268 -14 324 57 17 21 21 41 21 96 0 65 -2 72 -31 99 -17 16 -37 29 -44 29 -21 0 -52 -46 -60 -87 -9 -49 -20 -61 -60 -69 -68 -12 -143 35 -184 115 -25 47 -66 91 -86 91 -9 0 -29 -13 -45 -29z M4594 6011 c-58 -27 -84 -63 -84 -121 0 -82 57 -130 155 -130 66 0 99 25 110 84 15 76 -18 146 -81 172 -43 18 -50 17 -100 -5z M4969 5765 c-40 -22 -59 -72 -59 -158 0 -69 2 -77 35 -120 59 -77 87 -89 249 -100 l141 -10 73 -68 c101 -94 165 -124 262 -124 57 1 85 6 115 22 121 64 172 216 90 269 -24 16 -27 15 -64 -11 -22 -14 -42 -33 -45 -40 -3 -8 -30 -31 -61 -51 l-55 -37 -47 29 c-62 38 -107 99 -128 171 -9 32 -23 70 -31 85 l-14 27 -96 -46 c-67 -31 -113 -47 -155 -50 -85 -8 -86 -7 -105 145 -9 79 -43 101 -105 67z M6174 5596 c-47 -21 -74 -61 -74 -113 0 -65 23 -111 64 -128 47 -20 135 -19 163 0 48 34 55 155 12 209 -19 25 -73 46 -114 46 -11 -1 -34 -7 -51 -14z M3405 2786 c-17 -7 -43 -28 -58 -45 -22 -26 -27 -43 -27 -84 0 -64 24 -107 73 -130 81 -39 164 -10 199 69 34 78 5 148 -76 185 -48 22 -70 23 -111 5z M4822 2434 c-33 -23 -28 -61 23 -174 35 -78 45 -112 45 -153 0 -97 -73 -201 -182 -259 -37 -20 -58 -23 -143 -23 -88 0 -105 3 -144 25 -59 33 -70 66 -46 137 38 112 -27 160 -116 86 -86 -72 -80 -214 12 -304 124 -121 343 -130 568 -23 l94 44 81 -77 c124 -119 225 -163 371 -163 133 0 221 44 267 134 27 53 30 147 5 193 -29 55 -109 81 -152 50 -19 -14 -19 -22 1 -144 l7 -43 -44 -20 c-94 -42 -251 -8 -337 73 -37 35 -67 118 -78 215 -8 76 3 96 116 207 94 92 116 126 100 155 -13 25 -51 34 -245 59 -191 25 -175 25 -203 5z M6804 2419 c-16 -5 -41 -20 -55 -35 -21 -22 -24 -35 -24 -101 0 -73 1 -75 37 -109 32 -29 45 -34 85 -34 57 0 109 24 137 63 28 39 27 113 -2 154 -35 50 -118 79 -178 62z M11231 230 c-18 -85 -24 -135 -15 -127 12 11 43 177 33 177 -4 0 -12 -22 -18 -50z M11540 270 c0 -5 5 -10 10 -10 6 0 10 5 10 10 0 6 -4 10 -10 10 -5 0 -10 -4 -10 -10z M12091 230 c-18 -85 -24 -135 -15 -127 12 11 43 177 33 177 -4 0 -12 -22 -18 -50z M12151 203 c-7 -42 -15 -82 -18 -90 -3 -7 -1 -13 5 -13 5 0 17 37 26 83 19 95 19 97 8 97 -4 0 -14 -34 -21 -77z M10931 243 c-63 -59 -40 -143 38 -143 20 0 46 7 57 16 18 14 18 15 -6 7 -64 -19 -110 0 -110 48 0 61 63 98 130 75 22 -8 23 -7 11 8 -22 27 -85 21 -120 -11z M11926 185 c-31 -47 -52 -85 -46 -85 5 0 17 11 26 25 15 23 23 26 63 23 39 -3 46 -6 49 -25 2 -13 8 -23 13 -23 11 0 11 6 0 50 -6 19 -15 54 -21 78 -6 23 -14 42 -19 42 -4 0 -33 -38 -65 -85z m80 -22 c-2 -3 -20 -3 -40 -1 l-35 3 27 42 27 43 12 -42 c7 -23 11 -43 9 -45z M11083 215 c-50 -35 -31 -115 27 -115 17 0 39 9 50 20 22 22 27 79 8 98 -16 16 -59 15 -85 -3z m68 -5 c25 -14 25 -54 -1 -80 -23 -23 -33 -24 -61 -10 -25 14 -25 54 1 80 23 23 33 24 61 10z M11293 215 c-50 -35 -31 -115 27 -115 17 0 39 9 50 20 22 22 27 79 8 98 -16 16 -59 15 -85 -3z m68 -5 c25 -14 25 -54 -1 -80 -23 -23 -33 -24 -61 -10 -25 14 -25 54 1 80 23 23 33 24 61 10z M11430 173 c-12 -56 -8 -100 5 -48 13 57 26 83 48 93 20 9 19 10 -10 9 -31 0 -33 -2 -43 -54z M11526 183 c-4 -27 -9 -56 -12 -65 -3 -10 -1 -18 4 -18 5 0 14 26 21 57 13 68 13 73 2 73 -5 0 -12 -21 -15 -47z M11585 181 c-3 -25 -8 -54 -11 -63 -3 -10 -1 -18 4 -18 6 0 14 21 18 47 7 36 15 51 36 63 25 13 29 13 43 -1 13 -13 14 -24 6 -60 -9 -41 -8 -59 5 -47 3 3 8 31 11 61 5 53 4 56 -18 61 -13 3 -38 4 -56 4 -29 -1 -32 -4 -38 -47z M11763 215 c-30 -21 -38 -62 -17 -92 14 -22 21 -25 55 -20 45 6 50 -5 14 -29 -20 -13 -31 -14 -55 -6 -30 11 -44 -1 -14 -12 30 -12 71 -6 87 12 9 10 23 49 31 87 14 68 13 93 -3 66 -6 -9 -11 -10 -15 -2 -10 16 -58 14 -83 -4z m68 -5 c25 -14 25 -54 -1 -80 -23 -23 -33 -24 -61 -10 -25 14 -25 54 1 80 23 23 33 24 61 10z M12263 215 c-47 -33 -32 -115 21 -115 31 0 56 10 56 21 0 5 -11 4 -24 -2 -55 -25 -89 38 -45 82 20 20 31 21 74 3 18 -7 18 -6 6 9 -17 21 -59 22 -88 2z M12393 215 c-50 -35 -31 -115 27 -115 17 0 39 9 50 20 22 22 27 79 8 98 -16 16 -59 15 -85 -3z m68 -5 c25 -14 25 -54 -1 -80 -23 -23 -33 -24 -61 -10 -25 14 -25 54 1 80 23 23 33 24 61 10z M12530 178 c-5 -27 -10 -57 -10 -66 1 -27 16 5 24 51 9 47 47 71 72 45 13 -13 14 -24 6 -62 -5 -25 -6 -46 -1 -46 5 0 12 19 15 42 7 43 33 78 59 78 23 0 33 -29 23 -73 -5 -22 -6 -42 -3 -45 10 -11 15 6 18 58 3 64 -15 81 -63 63 -18 -7 -32 -7 -36 -2 -3 5 -25 8 -49 7 l-44 -1 -11 -49z M12180 110 c0 -5 5 -10 10 -10 6 0 10 5 10 10 0 6 -4 10 -10 10 -5 0 -10 -4 -10 -10z"></path>
  </g>
</svg>
