<?xml version="1.0" encoding="UTF-8"?>
<svg xmlns="http://www.w3.org/2000/svg" version="1.0" viewBox="0 0 1280.276273 1056.292379" preserveAspectRatio="xMidYMid meet">
  <metadata>
For more coloring pages, please visit ColoringAll.com
</metadata>
  <g transform="translate(-0.434903,1056.528974) scale(0.100000,-0.100000)" fill="#000000" stroke="none">
    <path d="M5467 10561 c-21 -4 -43 -13 -48 -18 -19 -19 -29 -87 -29 -205 l0 -118 -107 0 c-335 -1 -743 -116 -1133 -321 -239 -126 -321 -199 -409 -368 -66 -124 -90 -146 -264 -238 -232 -123 -508 -297 -725 -456 -124 -92 -191 -119 -532 -217 -150 -44 -332 -105 -470 -160 -124 -49 -268 -104 -320 -123 -280 -102 -560 -259 -785 -440 -104 -84 -280 -266 -332 -342 -53 -79 -70 -114 -141 -286 -33 -79 -83 -195 -111 -258 -66 -151 -69 -181 -36 -374 58 -346 155 -608 285 -772 91 -114 229 -237 311 -277 129 -63 294 -106 544 -143 123 -18 462 -25 587 -12 l77 9 19 -39 c27 -53 52 -170 52 -242 l0 -61 -52 -33 c-29 -19 -78 -50 -108 -69 -229 -147 -645 -531 -861 -794 -131 -159 -284 -360 -332 -436 -79 -123 -101 -225 -117 -538 -14 -277 -27 -397 -57 -510 -55 -205 -57 -219 -56 -395 1 -309 74 -749 149 -897 107 -211 454 -600 679 -760 159 -114 276 -148 504 -148 165 0 238 16 391 86 94 42 113 47 176 47 92 0 143 -27 272 -146 53 -50 124 -110 157 -135 77 -57 481 -257 605 -300 92 -31 100 -32 255 -32 254 0 314 10 483 81 193 81 224 85 458 65 491 -43 1250 -63 1756 -47 1312 42 2153 192 2749 492 l104 51 54 -63 c94 -110 332 -342 413 -402 108 -81 186 -120 222 -113 16 4 56 -2 93 -14 117 -36 458 -73 793 -85 181 -7 241 -1 372 38 48 15 152 33 230 42 79 9 224 32 323 51 222 43 323 58 557 84 338 38 412 63 511 170 72 78 139 203 161 301 22 97 30 243 17 333 -22 156 -89 246 -238 324 -125 65 -156 92 -191 165 -16 36 -64 117 -106 181 -42 64 -76 121 -76 126 0 5 22 51 48 103 56 109 75 175 98 348 22 171 15 360 -20 490 -60 229 -157 467 -230 569 -71 98 -69 86 -61 359 l7 246 -59 90 c-49 73 -70 96 -114 121 -94 56 -150 69 -284 69 -143 0 -174 -9 -355 -101 -110 -57 -135 -65 -210 -74 -111 -13 -593 -17 -648 -6 -24 4 -72 28 -107 52 -147 100 -229 122 -397 104 -55 -5 -117 -10 -138 -10 l-37 0 -48 163 c-26 89 -90 293 -142 452 -51 160 -96 309 -100 333 l-6 42 64 0 c35 0 91 -5 124 -10 266 -46 553 -25 807 60 238 80 399 181 637 402 l72 66 1 304 c2 393 -17 511 -127 779 -89 217 -145 309 -222 362 -52 36 -155 120 -351 290 -74 63 -162 131 -197 151 -34 21 -120 85 -191 143 -234 192 -427 313 -888 557 -279 148 -305 165 -411 265 -44 42 -149 125 -234 185 -84 60 -195 144 -247 187 -51 43 -134 105 -183 139 -123 84 -165 132 -190 216 -30 102 -85 185 -183 280 -139 133 -269 208 -570 328 -317 126 -641 224 -882 267 -138 24 -214 50 -243 82 -12 12 -44 68 -72 125 -64 128 -107 177 -171 196 -60 18 -212 27 -263 17z m208 -204 c26 -26 41 -57 65 -138 36 -116 66 -164 116 -185 18 -8 118 -27 221 -43 277 -44 446 -92 828 -238 419 -160 637 -298 711 -449 62 -127 28 -170 -215 -269 -136 -56 -325 -111 -445 -130 -318 -50 -1157 -58 -1551 -14 -49 5 -164 23 -255 38 -91 16 -227 37 -302 46 -211 25 -519 106 -721 191 -144 60 -257 152 -257 210 0 49 128 186 285 305 305 232 674 347 1250 389 83 6 156 13 163 15 9 3 12 37 12 125 0 116 8 155 34 172 18 13 27 9 61 -25z m-1777 -1282 c163 -99 409 -183 677 -231 77 -14 257 -47 400 -74 425 -81 507 -90 1010 -117 443 -24 595 -23 765 6 189 32 381 75 545 123 244 71 276 78 366 78 76 0 93 -4 145 -30 32 -16 113 -70 179 -119 168 -125 307 -220 399 -271 81 -46 199 -138 352 -273 114 -101 159 -127 260 -148 95 -21 149 -46 294 -139 58 -38 151 -92 205 -121 147 -78 225 -133 374 -265 73 -66 170 -145 215 -177 274 -194 486 -406 623 -625 87 -139 128 -283 139 -492 12 -214 -21 -359 -102 -449 -110 -123 -442 -285 -688 -335 -94 -20 -307 -21 -396 -2 -172 37 -356 140 -489 275 -152 154 -224 292 -311 600 -33 116 -76 253 -94 304 -49 131 -62 184 -86 342 -31 208 -46 244 -124 290 -64 37 -80 33 -152 -37 l-64 -63 85 -300 c47 -165 119 -424 161 -575 50 -183 84 -290 103 -321 15 -25 31 -60 34 -78 12 -58 45 -102 275 -369 112 -129 117 -143 114 -277 -3 -138 12 -250 45 -334 56 -147 235 -701 249 -769 20 -104 19 -440 -1 -509 -8 -27 -52 -106 -96 -174 -177 -269 -264 -516 -305 -860 -12 -104 -15 -212 -12 -489 l3 -355 -35 -80 -35 -80 0 -180 c0 -99 2 -229 5 -290 l5 -110 -82 -41 c-45 -23 -130 -58 -188 -78 -59 -20 -146 -56 -193 -80 -160 -80 -246 -104 -607 -171 -829 -152 -941 -160 -2150 -151 -856 5 -1219 16 -1311 36 -25 6 -86 26 -135 45 -104 41 -100 42 -214 -49 -141 -112 -234 -142 -445 -140 -125 1 -157 5 -233 28 -320 96 -609 322 -717 560 -83 182 -184 724 -166 886 14 124 133 403 244 570 90 137 119 151 317 158 161 5 223 -6 341 -63 130 -63 195 -140 244 -289 26 -79 74 -139 126 -156 48 -16 115 16 139 67 40 84 -24 300 -131 443 -110 145 -354 272 -579 300 -206 26 -417 -35 -557 -160 -117 -104 -294 -349 -338 -468 -51 -134 -80 -362 -87 -683 -5 -222 -4 -242 16 -318 14 -51 21 -102 19 -138 l-3 -57 -145 -74 c-80 -41 -167 -83 -194 -94 -77 -30 -183 -49 -286 -50 -86 -1 -101 2 -164 31 -147 66 -315 201 -494 394 -186 200 -233 284 -307 542 -51 181 -73 305 -80 460 -11 251 18 390 104 487 79 91 224 148 373 148 188 0 243 -67 268 -325 17 -174 159 -586 220 -640 17 -16 36 -20 86 -20 96 0 99 6 99 168 -1 132 -1 132 -44 242 -103 262 -117 352 -107 666 16 492 83 764 402 1616 177 476 186 510 204 873 13 261 25 375 55 526 62 307 208 678 425 1079 133 246 231 450 232 484 2 52 -73 110 -125 97 -89 -22 -256 -264 -446 -646 -170 -342 -280 -623 -355 -909 -51 -193 -70 -235 -128 -291 -136 -132 -302 -141 -752 -41 -312 70 -407 122 -547 299 -111 139 -171 277 -189 432 -16 136 -12 434 6 510 45 194 233 478 473 717 80 80 109 101 210 153 64 33 161 85 215 114 69 38 159 74 290 117 105 34 252 89 326 122 74 33 257 100 405 148 319 105 433 159 685 322 408 264 743 447 821 447 14 0 67 -25 117 -55z m-2178 -4451 c0 -9 -38 -105 -84 -213 -127 -298 -283 -800 -336 -1082 -11 -63 -24 -125 -28 -139 l-8 -25 -164 0 -165 0 -68 -37 c-80 -44 -128 -49 -151 -16 -40 56 -7 340 53 458 131 257 565 807 771 975 104 85 180 118 180 79z m9906 -712 c22 -11 55 -36 71 -56 63 -70 66 -145 12 -268 -16 -36 -29 -82 -29 -100 0 -35 41 -102 143 -236 137 -180 225 -343 264 -489 34 -132 45 -430 19 -533 -44 -171 -218 -402 -381 -504 -159 -100 -245 -235 -245 -380 0 -76 23 -128 82 -190 l45 -46 89 0 c49 0 134 5 188 10 55 5 102 7 105 5 3 -3 -5 -48 -18 -99 -12 -51 -23 -108 -23 -125 -2 -61 87 -124 142 -101 45 19 108 106 124 172 13 55 96 128 168 148 51 15 108 -18 157 -91 22 -33 43 -76 47 -94 18 -99 -96 -338 -194 -406 -47 -32 -139 -37 -235 -14 -109 26 -151 23 -268 -23 -57 -22 -141 -50 -187 -62 -85 -21 -417 -63 -460 -58 -23 3 -28 14 -56 114 -49 173 -83 233 -196 344 -75 75 -116 106 -189 145 -51 27 -96 55 -98 62 -3 7 11 54 31 104 20 50 39 110 43 134 16 117 -123 242 -367 330 -273 98 -522 83 -522 -32 0 -42 39 -67 153 -97 262 -69 316 -87 394 -137 74 -48 76 -51 63 -71 -8 -12 -41 -40 -72 -62 l-58 -41 -239 3 c-207 3 -244 1 -265 -12 -28 -19 -32 -67 -10 -120 29 -70 79 -88 290 -106 66 -6 122 -13 124 -15 3 -3 -9 -36 -27 -74 -40 -88 -61 -184 -61 -288 0 -152 39 -190 120 -117 32 29 45 51 61 108 28 92 49 127 101 162 39 26 51 29 123 29 69 0 86 -4 127 -27 97 -57 172 -178 173 -279 1 -118 -106 -216 -225 -206 -88 7 -476 65 -587 88 -377 75 -619 253 -764 563 -58 124 -70 181 -76 361 -6 175 6 341 38 535 18 108 20 144 13 265 -15 260 -11 570 10 665 55 258 112 372 362 730 l46 65 -6 113 c-4 70 -2 129 5 157 15 59 68 119 125 141 88 34 198 -11 279 -113 51 -64 85 -93 113 -93 12 0 75 13 140 30 64 16 162 35 216 41 118 14 473 7 653 -12 87 -9 126 -10 134 -2 5 5 15 43 21 82 6 40 18 79 26 88 23 23 163 14 218 -15z m438 -2363 c37 -29 34 -64 -11 -105 -77 -71 -279 -155 -337 -140 -34 8 -44 47 -23 91 31 66 225 174 313 175 17 0 43 -9 58 -21z M4031 7337 c-18 -6 -60 -36 -92 -67 -53 -50 -59 -60 -59 -96 0 -48 30 -98 79 -131 91 -62 251 14 251 119 0 61 -19 113 -54 146 -36 35 -78 44 -125 29z M7492 7070 c-34 -15 -47 -29 -63 -65 -18 -42 -19 -52 -9 -97 31 -127 162 -178 254 -98 63 56 67 152 9 221 -50 59 -117 73 -191 39z M5506 6899 c-9 -13 -16 -32 -16 -42 0 -29 44 -111 115 -212 81 -116 89 -145 71 -258 -18 -111 -45 -166 -108 -221 -105 -92 -202 -121 -384 -114 -96 4 -119 8 -167 32 -59 28 -75 54 -63 94 4 11 42 62 86 113 44 51 80 99 80 106 0 20 -36 33 -72 27 -52 -10 -161 -71 -203 -114 -35 -36 -39 -45 -38 -89 0 -27 11 -79 23 -115 63 -190 183 -256 414 -227 171 21 313 75 401 151 25 22 53 40 61 40 7 0 46 -44 86 -97 86 -117 152 -189 193 -211 23 -13 57 -17 150 -16 233 1 368 62 436 195 65 128 5 331 -109 368 -50 15 -87 9 -102 -18 -14 -26 -1 -55 49 -116 71 -86 64 -155 -24 -218 -88 -62 -203 -83 -298 -55 -130 39 -267 285 -267 478 1 87 27 145 74 165 20 8 44 15 54 15 78 0 176 232 128 304 -25 39 -75 48 -322 53 l-231 5 -17 -23z M6810 4639 c-14 -6 -47 -28 -73 -50 -119 -101 -374 -235 -815 -429 -348 -153 -422 -202 -589 -390 -191 -214 -223 -285 -223 -497 0 -325 49 -490 185 -628 140 -142 322 -205 589 -205 306 0 594 69 891 214 241 118 401 232 565 402 94 97 124 142 136 203 14 70 -108 127 -185 85 -19 -10 -54 -44 -78 -74 -89 -114 -123 -146 -206 -198 -176 -110 -492 -235 -773 -305 -177 -45 -283 -60 -382 -56 -66 3 -90 10 -153 41 -91 45 -164 109 -226 195 -61 85 -92 164 -93 232 0 66 45 206 103 316 82 156 234 272 582 446 110 54 227 115 260 134 33 19 83 42 110 51 138 46 365 185 452 277 64 68 82 117 60 170 -16 36 -68 77 -97 76 -8 0 -26 -5 -40 -10z M11727 2640 c-41 -36 -47 -67 -23 -125 22 -51 60 -85 95 -85 36 0 106 61 116 103 13 52 -48 122 -116 133 -31 5 -41 1 -72 -26z M10205 2550 c-29 -12 -72 -61 -79 -92 -8 -35 8 -76 47 -115 26 -28 38 -33 77 -33 73 0 120 49 120 125 0 91 -84 149 -165 115z M11501 2301 c-12 -12 -22 -41 -26 -78 -8 -66 -18 -83 -50 -83 -19 0 -85 39 -162 95 -21 16 -23 14 -82 -63 -94 -124 -152 -149 -210 -91 -17 17 -31 35 -31 40 0 18 -73 89 -91 89 -47 0 -73 -109 -45 -185 23 -59 63 -90 148 -116 62 -19 76 -20 124 -10 29 7 65 22 81 34 25 20 40 22 158 23 108 1 138 4 176 21 89 40 168 134 169 201 0 39 -31 92 -69 118 -43 29 -65 30 -90 5z M411 230 c-18 -85 -24 -135 -15 -127 12 11 43 177 33 177 -4 0 -12 -22 -18 -50z M720 270 c0 -5 5 -10 10 -10 6 0 10 5 10 10 0 6 -4 10 -10 10 -5 0 -10 -4 -10 -10z M1271 230 c-18 -85 -24 -135 -15 -127 12 11 43 177 33 177 -4 0 -12 -22 -18 -50z M1331 203 c-7 -42 -15 -82 -18 -90 -3 -7 -1 -13 5 -13 5 0 17 37 26 83 19 95 19 97 8 97 -4 0 -14 -34 -21 -77z M111 243 c-63 -59 -40 -143 38 -143 20 0 46 7 57 16 18 14 18 15 -6 7 -64 -19 -110 0 -110 48 0 61 63 98 130 75 22 -8 23 -7 11 8 -22 27 -85 21 -120 -11z M1106 185 c-31 -47 -52 -85 -46 -85 5 0 17 11 26 25 15 23 23 26 63 23 39 -3 46 -6 49 -25 2 -13 8 -23 13 -23 11 0 11 6 0 50 -6 19 -15 54 -21 78 -6 23 -14 42 -19 42 -4 0 -33 -38 -65 -85z m80 -22 c-2 -3 -20 -3 -40 -1 l-35 3 27 42 27 43 12 -42 c7 -23 11 -43 9 -45z M263 215 c-50 -35 -31 -115 27 -115 17 0 39 9 50 20 22 22 27 79 8 98 -16 16 -59 15 -85 -3z m68 -5 c25 -14 25 -54 -1 -80 -23 -23 -33 -24 -61 -10 -25 14 -25 54 1 80 23 23 33 24 61 10z M473 215 c-50 -35 -31 -115 27 -115 17 0 39 9 50 20 22 22 27 79 8 98 -16 16 -59 15 -85 -3z m68 -5 c25 -14 25 -54 -1 -80 -23 -23 -33 -24 -61 -10 -25 14 -25 54 1 80 23 23 33 24 61 10z M610 173 c-12 -56 -8 -100 5 -48 13 57 26 83 48 93 20 9 19 10 -10 9 -31 0 -33 -2 -43 -54z M706 183 c-4 -27 -9 -56 -12 -65 -3 -10 -1 -18 4 -18 5 0 14 26 21 57 13 68 13 73 2 73 -5 0 -12 -21 -15 -47z M765 181 c-3 -25 -8 -54 -11 -63 -3 -10 -1 -18 4 -18 6 0 14 21 18 47 7 36 15 51 36 63 25 13 29 13 43 -1 13 -13 14 -24 6 -60 -9 -41 -8 -59 5 -47 3 3 8 31 11 61 5 53 4 56 -18 61 -13 3 -38 4 -56 4 -29 -1 -32 -4 -38 -47z M943 215 c-30 -21 -38 -62 -17 -92 14 -22 21 -25 55 -20 45 6 50 -5 14 -29 -20 -13 -31 -14 -55 -6 -30 11 -44 -1 -14 -12 30 -12 71 -6 87 12 9 10 23 49 31 87 14 68 13 93 -3 66 -6 -9 -11 -10 -15 -2 -10 16 -58 14 -83 -4z m68 -5 c25 -14 25 -54 -1 -80 -23 -23 -33 -24 -61 -10 -25 14 -25 54 1 80 23 23 33 24 61 10z M1443 215 c-47 -33 -32 -115 21 -115 31 0 56 10 56 21 0 5 -11 4 -24 -2 -55 -25 -89 38 -45 82 20 20 31 21 74 3 18 -7 18 -6 6 9 -17 21 -59 22 -88 2z M1573 215 c-50 -35 -31 -115 27 -115 17 0 39 9 50 20 22 22 27 79 8 98 -16 16 -59 15 -85 -3z m68 -5 c25 -14 25 -54 -1 -80 -23 -23 -33 -24 -61 -10 -25 14 -25 54 1 80 23 23 33 24 61 10z M1710 178 c-5 -27 -10 -57 -10 -66 1 -27 16 5 24 51 9 47 47 71 72 45 13 -13 14 -24 6 -62 -5 -25 -6 -46 -1 -46 5 0 12 19 15 42 7 43 33 78 59 78 23 0 33 -29 23 -73 -5 -22 -6 -42 -3 -45 10 -11 15 6 18 58 3 64 -15 81 -63 63 -18 -7 -32 -7 -36 -2 -3 5 -25 8 -49 7 l-44 -1 -11 -49z M1360 110 c0 -5 5 -10 10 -10 6 0 10 5 10 10 0 6 -4 10 -10 10 -5 0 -10 -4 -10 -10z"></path>
  </g>
</svg>
