<?xml version="1.0" encoding="UTF-8"?>
<svg xmlns="http://www.w3.org/2000/svg" version="1.0" viewBox="0 0 1242.863431 1200.312240" preserveAspectRatio="xMidYMid meet">
  <metadata>
For more coloring pages, please visit ColoringAll.com
</metadata>
  <g transform="translate(-1.000000,1200.587660) scale(0.100000,-0.100000)" fill="#000000" stroke="none">
    <path d="M8148 12000 c-140 -25 -207 -56 -315 -143 -114 -92 -138 -107 -170 -107 -17 0 -101 18 -188 40 -87 22 -199 45 -249 51 -289 35 -814 -60 -1088 -197 -47 -24 -137 -82 -200 -130 -62 -47 -130 -94 -150 -105 -92 -47 -797 -272 -924 -294 -129 -22 -813 -82 -1160 -101 l-121 -7 -23 34 c-13 19 -38 51 -55 71 -36 45 -46 46 -235 23 -146 -17 -1582 -236 -1745 -266 -266 -49 -1084 -247 -1280 -309 -127 -41 -164 -60 -203 -105 l-32 -36 0 -177 c0 -197 8 -257 90 -708 162 -889 291 -1437 362 -1537 45 -63 127 -72 266 -27 151 48 228 34 264 -47 27 -61 66 -267 143 -758 157 -993 160 -1033 85 -1119 -39 -44 -89 -56 -240 -56 l-120 0 -37 -34 -37 -33 57 -219 c82 -320 110 -449 282 -1303 153 -760 230 -1123 279 -1318 52 -205 83 -263 163 -310 43 -25 49 -25 156 -20 62 3 195 19 297 37 236 39 302 41 335 10 14 -13 88 -150 166 -304 244 -483 255 -500 613 -863 229 -234 238 -244 232 -276 -3 -17 -8 -147 -12 -287 -7 -279 2 -402 37 -496 62 -164 288 -400 466 -485 78 -37 217 -65 402 -80 166 -14 262 -4 366 37 249 100 495 375 576 646 11 37 34 87 53 110 l32 43 115 -2 c103 -2 268 -16 834 -70 207 -20 609 -22 755 -5 264 31 1206 46 1228 19 7 -7 18 -59 27 -116 27 -182 75 -280 187 -386 76 -72 174 -124 283 -152 57 -14 116 -17 325 -18 233 0 262 2 336 22 197 54 334 133 485 280 168 163 183 213 177 615 l-3 264 70 28 c109 44 323 162 402 222 132 101 294 283 463 519 157 220 175 234 390 295 200 57 257 90 374 210 84 87 101 110 150 211 151 315 183 613 104 994 -40 197 -109 371 -193 491 -60 84 -194 184 -247 184 -32 0 -125 -40 -188 -81 -34 -22 -69 -38 -76 -35 -21 8 -52 77 -197 436 -75 184 -188 461 -251 614 -157 376 -166 409 -165 549 0 62 4 135 7 162 7 50 7 50 42 47 19 -2 103 -16 185 -32 228 -43 333 -53 474 -47 276 12 483 114 743 366 140 135 206 223 249 335 53 138 61 197 66 515 8 434 -10 530 -142 789 -80 158 -147 242 -356 447 -317 310 -609 556 -924 777 -113 79 -214 165 -415 353 -213 198 -423 412 -443 452 -9 16 -25 66 -36 110 -56 219 -196 460 -355 611 -127 120 -252 196 -744 451 -162 83 -318 167 -347 185 -59 38 -68 57 -103 208 -38 163 -112 277 -208 319 -51 23 -149 32 -216 19z m130 -295 c46 -19 72 -56 72 -102 0 -42 -39 -116 -119 -227 -39 -55 -71 -105 -71 -111 0 -8 43 -14 138 -18 158 -8 214 -19 386 -82 341 -123 555 -245 872 -495 268 -211 350 -338 315 -488 -25 -103 -115 -164 -298 -201 -192 -39 -446 -26 -757 40 -253 53 -1064 276 -1370 376 -515 168 -873 354 -1147 597 -208 184 -242 275 -138 376 75 73 283 158 479 196 127 24 442 25 577 1 153 -28 204 -53 411 -204 120 -87 126 -89 165 -45 10 11 33 63 52 116 45 124 67 167 113 218 64 72 85 80 187 75 55 -2 107 -11 133 -22z m-2503 -583 c17 -11 69 -55 115 -99 147 -138 251 -223 365 -298 213 -140 603 -335 865 -433 512 -189 1367 -418 1900 -507 239 -40 398 -43 660 -10 118 14 242 29 275 31 l60 4 141 -127 c547 -495 586 -527 689 -580 135 -69 264 -168 570 -438 105 -92 234 -206 288 -253 192 -169 314 -347 414 -605 74 -193 97 -389 74 -647 -26 -295 -65 -390 -229 -562 -130 -136 -250 -212 -442 -279 -172 -60 -317 -45 -657 66 -215 71 -382 168 -483 282 -67 75 -136 186 -205 328 -99 204 -110 251 -150 675 -30 310 -85 725 -110 822 -31 122 -67 212 -86 216 -21 4 -107 -56 -133 -91 -19 -26 -21 -42 -20 -155 1 -70 15 -253 33 -407 17 -154 40 -363 52 -465 35 -328 92 -556 193 -780 65 -145 90 -181 222 -322 130 -139 179 -211 194 -283 14 -67 7 -118 -33 -260 -17 -60 -30 -132 -31 -160 0 -65 41 -145 184 -365 169 -261 269 -454 360 -695 76 -199 106 -341 140 -656 23 -210 41 -294 72 -326 18 -19 32 -23 85 -23 115 0 150 39 172 190 33 219 180 307 296 178 78 -86 120 -228 136 -458 15 -214 7 -531 -14 -588 -52 -135 -253 -343 -364 -377 -18 -5 -33 4 -75 48 -95 98 -200 129 -253 77 -14 -14 -52 -89 -84 -165 -63 -152 -84 -190 -192 -352 -255 -382 -467 -590 -653 -644 -162 -46 -280 -130 -306 -215 -7 -23 -15 -146 -19 -299 l-6 -260 -32 -68 c-59 -124 -138 -212 -265 -294 -112 -73 -180 -93 -348 -104 -151 -10 -358 -4 -423 12 -51 13 -103 62 -136 128 -49 98 -121 337 -121 402 0 76 -90 187 -168 208 -30 9 -68 7 -153 -4 -396 -53 -677 -72 -1450 -96 -421 -13 -610 -6 -1069 42 -398 41 -531 47 -564 25 -43 -27 -73 -83 -132 -246 -88 -243 -135 -333 -213 -411 -46 -46 -90 -77 -145 -105 l-80 -39 -165 0 c-188 0 -247 11 -371 72 -148 72 -279 240 -327 423 -27 100 -24 355 5 477 12 51 22 113 22 138 0 78 -14 98 -284 395 -336 369 -442 509 -550 725 -107 216 -129 318 -76 356 31 23 264 86 875 234 830 202 2005 493 2124 527 74 21 133 44 170 68 63 41 135 107 143 130 4 12 63 0 348 -71 l343 -87 96 56 c53 31 98 57 101 60 10 8 -142 144 -176 158 -19 8 -88 22 -152 30 -229 30 -703 136 -973 218 -143 43 -327 120 -422 177 -178 106 -239 227 -254 505 -10 188 36 328 154 469 84 100 124 118 274 123 191 7 436 -25 774 -100 311 -69 440 -89 595 -95 149 -5 195 2 206 32 10 26 -5 64 -42 104 -62 69 -111 85 -547 177 -446 93 -529 116 -556 148 -7 9 -61 210 -121 448 -132 534 -177 674 -234 734 -55 57 -89 62 -241 39 -238 -37 -282 -32 -308 33 -21 52 -35 136 -131 752 -85 544 -112 689 -186 979 -62 242 -67 246 -281 262 -163 11 -189 18 -189 52 0 55 105 233 265 447 107 145 119 186 55 203 -52 13 -132 0 -182 -32 -69 -44 -173 -165 -262 -306 -45 -72 -86 -129 -91 -128 -11 2 -45 180 -170 886 -47 268 -87 513 -88 545 l-2 57 60 12 c80 15 544 67 890 98 439 39 460 44 784 187 113 50 221 96 240 104 52 18 111 17 146 -4z m-2565 -342 c0 -31 -72 -176 -310 -625 -248 -467 -266 -499 -293 -512 -32 -17 -340 -96 -492 -127 -256 -53 -447 -79 -661 -91 l-101 -5 -429 433 c-236 238 -448 456 -472 484 l-43 52 43 12 c223 60 887 195 1268 258 491 81 1086 146 1368 150 l122 1 0 -30z m173 -219 c36 -88 277 -1306 277 -1397 0 -38 -24 -39 -84 -4 -132 75 -503 350 -600 444 -47 46 -48 49 -44 94 6 60 56 177 224 521 132 271 191 381 205 381 4 0 14 -17 22 -39z m-2765 -704 c202 -199 411 -403 464 -454 54 -50 98 -93 98 -97 0 -3 -73 -144 -161 -313 -304 -580 -350 -662 -375 -663 -42 -1 -152 446 -313 1275 -98 502 -115 615 -91 615 6 0 176 -163 378 -363z m2311 -474 c322 -242 641 -497 641 -513 0 -18 -69 -50 -180 -83 -138 -42 -424 -107 -970 -221 -223 -46 -616 -132 -875 -190 -540 -121 -653 -142 -668 -127 -14 14 49 151 213 463 197 378 237 431 365 482 81 32 160 46 570 101 187 25 396 57 464 71 109 22 235 64 281 94 27 18 43 11 159 -77z m1396 -722 c39 -22 44 -38 109 -359 116 -570 176 -1007 176 -1287 0 -137 -8 -153 -83 -183 -216 -86 -2169 -571 -2740 -681 -126 -24 -170 -26 -186 -8 -17 22 -304 1683 -318 1842 l-6 73 209 50 c283 69 671 155 1209 267 248 52 641 134 875 184 380 80 552 113 645 124 41 5 74 -2 110 -22z m965 -1993 c17 -29 78 -262 110 -422 10 -48 9 -61 -2 -72 -19 -19 -218 -71 -2008 -519 -1710 -428 -2067 -515 -2099 -515 -27 0 -33 17 -76 185 -50 197 -69 321 -55 356 22 52 136 91 550 189 663 157 1574 391 2105 540 410 115 923 220 1390 283 61 8 65 7 85 -25z m180 -801 c0 -46 -33 -62 -207 -107 -270 -69 -380 -161 -499 -415 -81 -174 -89 -213 -89 -440 l0 -200 32 -84 c41 -105 71 -158 142 -245 100 -124 175 -174 496 -332 l290 -142 -38 -17 c-93 -39 -440 -125 -711 -175 -185 -34 -443 -98 -981 -243 -811 -220 -1134 -296 -1565 -367 -355 -58 -500 -71 -542 -49 -11 6 -33 39 -49 74 -78 173 -284 943 -378 1415 -31 158 -56 339 -47 348 3 2 94 26 203 53 109 26 839 206 1623 399 2054 506 2226 548 2288 549 27 1 32 -2 32 -22z M5034 9021 c-62 -38 -114 -131 -114 -205 0 -47 27 -97 65 -122 64 -42 204 -36 276 11 46 30 79 96 79 157 0 56 -47 132 -100 160 -49 25 -163 25 -206 -1z M6650 8327 l-45 -12 2 -65 c1 -44 13 -101 37 -176 45 -140 46 -181 5 -228 -37 -42 -130 -91 -204 -106 -68 -14 -141 4 -220 55 -80 51 -97 81 -93 163 2 37 11 89 18 115 l15 49 -33 29 c-48 43 -109 41 -161 -6 -63 -57 -86 -121 -86 -240 0 -92 2 -104 29 -153 34 -61 136 -161 199 -194 39 -22 54 -23 227 -23 168 1 195 3 298 29 l113 28 82 -79 c121 -116 164 -148 268 -197 178 -84 342 -98 448 -40 101 55 191 180 212 294 20 115 -3 190 -71 225 -75 39 -139 -6 -160 -112 -29 -144 -34 -158 -61 -185 -23 -24 -36 -28 -83 -28 -70 0 -165 35 -266 98 -151 93 -208 171 -197 268 6 56 25 77 163 184 151 117 167 144 117 193 -89 84 -416 152 -553 114z M8494 8108 c-29 -29 -59 -67 -68 -85 -73 -145 131 -329 275 -247 73 42 122 208 84 288 -25 53 -89 88 -173 93 l-67 5 -51 -54z M10871 230 c-18 -85 -24 -135 -15 -127 12 11 43 177 33 177 -4 0 -12 -22 -18 -50z M11180 270 c0 -5 5 -10 10 -10 6 0 10 5 10 10 0 6 -4 10 -10 10 -5 0 -10 -4 -10 -10z M11731 230 c-18 -85 -24 -135 -15 -127 12 11 43 177 33 177 -4 0 -12 -22 -18 -50z M11791 203 c-7 -42 -15 -82 -18 -90 -3 -7 -1 -13 5 -13 5 0 17 37 26 83 19 95 19 97 8 97 -4 0 -14 -34 -21 -77z M10571 243 c-63 -59 -40 -143 38 -143 20 0 46 7 57 16 18 14 18 15 -6 7 -64 -19 -110 0 -110 48 0 61 63 98 130 75 22 -8 23 -7 11 8 -22 27 -85 21 -120 -11z M11566 185 c-31 -47 -52 -85 -46 -85 5 0 17 11 26 25 15 23 23 26 63 23 39 -3 46 -6 49 -25 2 -13 8 -23 13 -23 11 0 11 6 0 50 -6 19 -15 54 -21 78 -6 23 -14 42 -19 42 -4 0 -33 -38 -65 -85z m80 -22 c-2 -3 -20 -3 -40 -1 l-35 3 27 42 27 43 12 -42 c7 -23 11 -43 9 -45z M10723 215 c-50 -35 -31 -115 27 -115 17 0 39 9 50 20 22 22 27 79 8 98 -16 16 -59 15 -85 -3z m68 -5 c25 -14 25 -54 -1 -80 -23 -23 -33 -24 -61 -10 -25 14 -25 54 1 80 23 23 33 24 61 10z M10933 215 c-50 -35 -31 -115 27 -115 17 0 39 9 50 20 22 22 27 79 8 98 -16 16 -59 15 -85 -3z m68 -5 c25 -14 25 -54 -1 -80 -23 -23 -33 -24 -61 -10 -25 14 -25 54 1 80 23 23 33 24 61 10z M11070 173 c-12 -56 -8 -100 5 -48 13 57 26 83 48 93 20 9 19 10 -10 9 -31 0 -33 -2 -43 -54z M11166 183 c-4 -27 -9 -56 -12 -65 -3 -10 -1 -18 4 -18 5 0 14 26 21 57 13 68 13 73 2 73 -5 0 -12 -21 -15 -47z M11225 181 c-3 -25 -8 -54 -11 -63 -3 -10 -1 -18 4 -18 6 0 14 21 18 47 7 36 15 51 36 63 25 13 29 13 43 -1 13 -13 14 -24 6 -60 -9 -41 -8 -59 5 -47 3 3 8 31 11 61 5 53 4 56 -18 61 -13 3 -38 4 -56 4 -29 -1 -32 -4 -38 -47z M11403 215 c-30 -21 -38 -62 -17 -92 14 -22 21 -25 55 -20 45 6 50 -5 14 -29 -20 -13 -31 -14 -55 -6 -30 11 -44 -1 -14 -12 30 -12 71 -6 87 12 9 10 23 49 31 87 14 68 13 93 -3 66 -6 -9 -11 -10 -15 -2 -10 16 -58 14 -83 -4z m68 -5 c25 -14 25 -54 -1 -80 -23 -23 -33 -24 -61 -10 -25 14 -25 54 1 80 23 23 33 24 61 10z M11903 215 c-47 -33 -32 -115 21 -115 31 0 56 10 56 21 0 5 -11 4 -24 -2 -55 -25 -89 38 -45 82 20 20 31 21 74 3 18 -7 18 -6 6 9 -17 21 -59 22 -88 2z M12033 215 c-50 -35 -31 -115 27 -115 17 0 39 9 50 20 22 22 27 79 8 98 -16 16 -59 15 -85 -3z m68 -5 c25 -14 25 -54 -1 -80 -23 -23 -33 -24 -61 -10 -25 14 -25 54 1 80 23 23 33 24 61 10z M12170 178 c-5 -27 -10 -57 -10 -66 1 -27 16 5 24 51 9 47 47 71 72 45 13 -13 14 -24 6 -62 -5 -25 -6 -46 -1 -46 5 0 12 19 15 42 7 43 33 78 59 78 23 0 33 -29 23 -73 -5 -22 -6 -42 -3 -45 10 -11 15 6 18 58 3 64 -15 81 -63 63 -18 -7 -32 -7 -36 -2 -3 5 -25 8 -49 7 l-44 -1 -11 -49z M11820 110 c0 -5 5 -10 10 -10 6 0 10 5 10 10 0 6 -4 10 -10 10 -5 0 -10 -4 -10 -10z"></path>
  </g>
</svg>
